<svg xmlns="http://www.w3.org/2000/svg" width="800" height="450" viewBox="0 0 800 450">
  <defs>
    <linearGradient id="g" x1="0%" y1="0%" x2="100%" y2="100%">
      <stop offset="0%" stop-color="#EEF1F5"/>
      <stop offset="100%" stop-color="#D4DDE8"/>
    </linearGradient>
    <!-- subtle dot pattern -->
    <pattern id="dots" width="20" height="20" patternUnits="userSpaceOnUse">
      <circle cx="10" cy="10" r="1" fill="#3A5870" fill-opacity="0.12"/>
    </pattern>
  </defs>
  <!-- background -->
  <rect width="800" height="450" fill="url(#g)"/>
  <rect width="800" height="450" fill="url(#dots)"/>
  <!-- icon container -->
  <circle cx="400" cy="195" r="64" fill="#3A5870" fill-opacity="0.12"/>
  <!-- icon (24x24 → scaled 3x = 72x72, centered at 400,195) -->
  <g transform="translate(364 159) scale(3)" stroke="#3A5870" stroke-width="1.5" fill="none">
    <path stroke-linecap="round" stroke-linejoin="round" d="M3.75 21h16.5M4.5 3h15M5.25 3v18m13.5-18v18M9 6.75h1.5m-1.5 3h1.5m-1.5 3h1.5m3-6H15m-1.5 3H15m-1.5 3H15M9 21v-3.375c0-.621.504-1.125 1.125-1.125h3.75c.621 0 1.125.504 1.125 1.125V21"/>
  </g>
  <!-- label -->
  <text x="400" y="306" font-family="Georgia, serif" font-size="22" font-weight="600"
        fill="#3A5870" fill-opacity="0.7" text-anchor="middle" letter-spacing="0.5">
    Studio professionale
  </text>
  <!-- decorative line -->
  <rect x="370" y="320" width="60" height="2" rx="1" fill="#3A5870" fill-opacity="0.3"/>
</svg>