<svg xmlns="http://www.w3.org/2000/svg" width="800" height="450" viewBox="0 0 800 450">
  <defs>
    <linearGradient id="g" x1="0%" y1="0%" x2="100%" y2="100%">
      <stop offset="0%" stop-color="#F5EEE8"/>
      <stop offset="100%" stop-color="#E8D6C2"/>
    </linearGradient>
    <!-- subtle dot pattern -->
    <pattern id="dots" width="20" height="20" patternUnits="userSpaceOnUse">
      <circle cx="10" cy="10" r="1" fill="#7A4A20" fill-opacity="0.12"/>
    </pattern>
  </defs>
  <!-- background -->
  <rect width="800" height="450" fill="url(#g)"/>
  <rect width="800" height="450" fill="url(#dots)"/>
  <!-- icon container -->
  <circle cx="400" cy="195" r="64" fill="#7A4A20" fill-opacity="0.12"/>
  <!-- icon (24x24 → scaled 3x = 72x72, centered at 400,195) -->
  <g transform="translate(364 159) scale(3)" stroke="#7A4A20" stroke-width="1.5" fill="none">
    <path stroke-linecap="round" stroke-linejoin="round" d="M8.25 18.75a1.5 1.5 0 01-3 0m3 0a1.5 1.5 0 00-3 0m3 0h6m-9 0H3.375a1.125 1.125 0 01-1.125-1.125V14.25m17.25 4.5a1.5 1.5 0 01-3 0m3 0a1.5 1.5 0 00-3 0m3 0h1.125c.621 0 1.129-.504 1.09-1.124a17.902 17.902 0 00-3.213-9.193 2.056 2.056 0 00-1.58-.86H14.25M16.5 18.75h-2.25m0-11.177v-.958c0-.568-.422-1.048-.987-1.106a48.554 48.554 0 00-10.026 0 1.106 1.106 0 00-.987 1.106v7.635m12-6.677v6.677m0 4.5v-4.5m0 0h-12"/>
  </g>
  <!-- label -->
  <text x="400" y="306" font-family="Georgia, serif" font-size="22" font-weight="600"
        fill="#7A4A20" fill-opacity="0.7" text-anchor="middle" letter-spacing="0.5">
    Appartamento 4 locali
  </text>
  <!-- decorative line -->
  <rect x="370" y="320" width="60" height="2" rx="1" fill="#7A4A20" fill-opacity="0.3"/>
</svg>