<svg xmlns="http://www.w3.org/2000/svg" width="800" height="450" viewBox="0 0 800 450">
  <defs>
    <linearGradient id="g" x1="0%" y1="0%" x2="100%" y2="100%">
      <stop offset="0%" stop-color="#EFF2F0"/>
      <stop offset="100%" stop-color="#D8E2DA"/>
    </linearGradient>
    <!-- subtle dot pattern -->
    <pattern id="dots" width="20" height="20" patternUnits="userSpaceOnUse">
      <circle cx="10" cy="10" r="1" fill="#4A7060" fill-opacity="0.12"/>
    </pattern>
  </defs>
  <!-- background -->
  <rect width="800" height="450" fill="url(#g)"/>
  <rect width="800" height="450" fill="url(#dots)"/>
  <!-- icon container -->
  <circle cx="400" cy="195" r="64" fill="#4A7060" fill-opacity="0.12"/>
  <!-- icon (24x24 → scaled 3x = 72x72, centered at 400,195) -->
  <g transform="translate(364 159) scale(3)" stroke="#4A7060" stroke-width="1.5" fill="none">
    <path stroke-linecap="round" stroke-linejoin="round" d="M3 7.5V18a2.25 2.25 0 002.25 2.25h13.5A2.25 2.25 0 0021 18V7.5M3 7.5A2.25 2.25 0 015.25 5.25h13.5A2.25 2.25 0 0121 7.5M3 7.5h18M12 5.25v15m-3.75-7.5h.008v.008H8.25V12.75zm7.5 0h.008v.008h-.008V12.75z"/>
  </g>
  <!-- label -->
  <text x="400" y="306" font-family="Georgia, serif" font-size="22" font-weight="600"
        fill="#4A7060" fill-opacity="0.7" text-anchor="middle" letter-spacing="0.5">
    Walk-in closet
  </text>
  <!-- decorative line -->
  <rect x="370" y="320" width="60" height="2" rx="1" fill="#4A7060" fill-opacity="0.3"/>
</svg>